<?xml version="1.0" standalone="no"?>
<!DOCTYPE svg PUBLIC "-//W3C//DTD SVG 20010904//EN"
 "http://www.w3.org/TR/2001/REC-SVG-20010904/DTD/svg10.dtd">
<svg version="1.0" xmlns="http://www.w3.org/2000/svg"
 width="512.000000pt" height="512.000000pt" viewBox="0 0 512.000000 512.000000"
 preserveAspectRatio="xMidYMid meet">
<metadata>
Created by potrace 1.11, written by Peter Selinger 2001-2013
</metadata>
<g transform="translate(0.000000,512.000000) scale(0.100000,-0.100000)"
fill="#000000" stroke="none">
<path d="M2310 5109 c-685 -74 -1273 -386 -1714 -909 -257 -305 -465 -727
-536 -1085 -5 -27 -12 -61 -15 -75 -34 -169 -43 -283 -40 -515 4 -226 6 -253
36 -419 125 -682 504 -1268 1075 -1660 62 -42 115 -76 120 -76 4 0 15 -6 23
-14 9 -8 84 -48 166 -89 275 -137 559 -219 880 -255 83 -10 434 -9 524 1 344
38 668 141 976 311 89 49 291 182 330 216 11 10 56 49 100 86 375 320 668 783
796 1261 66 248 88 430 84 713 -2 118 -5 226 -8 240 -3 14 -8 48 -12 75 -32
246 -120 534 -236 768 -27 56 -54 109 -59 117 -5 8 -30 51 -56 95 -40 68 -174
259 -193 275 -3 3 -31 34 -61 70 -76 89 -200 211 -306 298 -85 70 -286 212
-301 212 -3 0 -14 6 -22 14 -22 20 -315 166 -333 166 -8 0 -18 4 -23 9 -14 12
-173 65 -285 95 -117 31 -287 62 -400 74 -99 11 -415 11 -510 1z m2651 -2482
c-10 -9 -11 -8 -5 6 3 10 9 15 12 12 3 -3 0 -11 -7 -18z"/>
</g>
</svg>
